<?xml version="1.0" encoding="utf-8"?>
<!-- Generator: Adobe Illustrator 21.1.0, SVG Export Plug-In . SVG Version: 6.00 Build 0)  -->
<svg version="1.1" baseProfile="tiny" id="Layer_1" xmlns="http://www.w3.org/2000/svg" xmlns:xlink="http://www.w3.org/1999/xlink"
	 x="0px" y="0px" viewBox="0 0 481.2 481.2" xml:space="preserve">
<g>
	<path d="M175,29.2v102.1h72.9V58.3h-29.2V29.2H175z M189.5,43.7h14.6v14.6h-14.6V43.7z M233.3,72.9v43.7h-43.7V72.9H233.3z"/>
	<path d="M277,72.9h14.6v58.3h14.6V72.9h14.6v58.3h14.6V72.9h17.5h26.2h14.6V58.3V43.7V29.2v0V14.6V0h-14.6h-14.6v0h-43.7v58.3
		h-14.6V0h-43.7v131.2H277V72.9z M335.4,14.6h14.6v0h10.6h18.6v14.6v0v14.6v14.6h-26.2h-17.5V14.6z M277,14.6h14.6v43.7H277V14.6z"
		/>
	<path d="M481.2,131.2V29.2h-43.7v102.1H452V72.9h14.6v58.3H481.2z M452,58.3V43.7h14.6v14.6H452z"/>
	<polygon points="422.8,116.6 422.8,102.1 422.8,87.5 422.8,72.9 422.8,58.3 422.8,43.7 422.8,29.2 422.8,14.6 437.4,14.6 452,14.6 
		466.6,14.6 481.2,14.6 481.2,0 466.6,0 452,0 437.4,0 422.8,0 408.3,0 408.3,14.6 408.3,29.2 408.3,43.7 408.3,58.3 408.3,72.9 
		408.3,87.5 408.3,102.1 408.3,116.6 408.3,131.2 422.8,131.2 	"/>
	<path d="M481.2,145.8L481.2,145.8l-14.6,0H452h-14.6h-14.6h-14.6h-14.6h-14.6h-14.6h-14.6h-14.6h-14.6v0h-14.6h-14.6H277h-14.6
		h-14.6h-14.6h-14.6h-14.6h-14.6H175h-14.6v0v-14.6v-14.6v-14.6V87.5V72.9V58.3V43.7V29.2V14.6H175h14.6h14.6h14.6h14.6v14.6v14.6
		h14.6V29.2V14.6V0h-14.6h-14.6h-14.6h-14.6H175h-14.6v0h-14.6v0h0v14.6v14.6v14.6v14.6v14.6v14.6v14.6v14.6v14.6v14.6v14.6h0V175
		v14.6v14.6v14.6v14.6v14.6v14.6V277v14.6v14.6v14.6h0h-14.6h-14.6h-14.6H87.5H72.9H58.3H43.7H29.2H14.6v-14.6v-14.6V277v-14.6
		v-14.6h14.6h14.6v-14.6H29.2H14.6H0v14.6v14.6V277v14.6v14.6v14.6h0v14.6h0v0h14.6h14.6h14.6h14.6h14.6h14.6h14.6h14.6h14.6h14.6
		h14.6v0H175h14.6h14.6h14.6h14.6h14.6h14.6H277h14.6h14.6h14.6v0v14.6v14.6v14.6v14.6v14.6v14.6v14.6V452v14.6h-14.6h-14.6H277
		h-14.6h-14.6V452v-14.6h-14.6V452v14.6v14.6h14.6h14.6H277h14.6h14.6h14.6v0h14.6v0h0v-14.6V452v-14.6v-14.6v-14.6v-14.6v-14.6
		v-14.6v-14.6v-14.6v-14.6h0v-14.6v-14.6V277v-14.6v-14.6v-14.6v-14.6v-14.6v-14.6V175v-14.6h0h14.6h14.6h14.6h14.6h14.6h14.6h14.6
		H452h14.6V175v14.6v14.6v14.6v14.6H452h-14.6v14.6H452h14.6h14.6v-14.6v-14.6v-14.6v-14.6V175v-14.6h0L481.2,145.8L481.2,145.8z
		 M320.8,175v14.6v14.6v14.6v14.6v14.6v14.6V277v14.6v14.6v14.6h-14.6h-14.6H277h-14.6h-14.6h-14.6h-14.6h-14.6h-14.6H175h-14.6
		v-14.6v-14.6V277v-14.6v-14.6v-14.6v-14.6v-14.6v-14.6V175v-14.6H175h14.6h14.6h14.6h14.6h14.6h14.6H277h14.6h14.6h14.6V175z"/>
	<path d="M452,218.7V175H349.9v72.9h72.9v-29.2H452z M422.8,189.6h14.6v14.6h-14.6V189.6z M408.3,233.3h-43.7v-43.7h43.7V233.3z"/>
	<path d="M349.9,277h58.3v14.6h-58.3v14.6h58.3v14.6h-58.3v14.6h58.3v17.5v26.2v14.6h14.6h14.6H452h0h14.6h14.6v-14.6v-14.6h0v-43.7
		h-58.3v-14.6h58.3v-43.7H349.9V277z M422.8,277h43.7v14.6h-43.7V277z M422.8,352.9v-17.5h43.7v14.6h0v10.6v18.6H452h0h-14.6h-14.6
		V352.9z"/>
	<path d="M349.9,452h58.3v14.6h-58.3v14.6H452v-43.7H349.9V452z M422.8,452h14.6v14.6h-14.6V452z"/>
	<polygon points="452,408.3 437.4,408.3 422.8,408.3 408.3,408.3 393.7,408.3 379.1,408.3 364.5,408.3 349.9,408.3 349.9,422.8 
		364.5,422.8 379.1,422.8 393.7,422.8 408.3,422.8 422.8,422.8 437.4,422.8 452,422.8 466.6,422.8 466.6,437.4 466.6,452 
		466.6,466.6 466.6,481.2 481.2,481.2 481.2,466.6 481.2,452 481.2,437.4 481.2,422.8 481.2,408.3 466.6,408.3 	"/>
	<path d="M306.2,452V349.9h-72.9v72.9h29.2V452H306.2z M291.6,437.4H277v-14.6h14.6V437.4z M247.9,408.3v-43.7h43.7v43.7H247.9z"/>
	<path d="M204.1,408.3h-14.6v-58.3H175v58.3h-14.6v-58.3h-14.6v58.3h-17.5h-26.2H87.5v14.6v14.6V452v0v14.6v14.6h14.6h14.6v0h43.7
		v-58.3H175v58.3h43.7V349.9h-14.6V408.3z M145.8,466.6h-14.6v0h-10.6h-18.6V452v0v-14.6v-14.6h26.2h17.5V466.6z M204.1,466.6h-14.6
		v-43.7h14.6V466.6z"/>
	<path d="M0,349.9V452h43.7V349.9H29.2v58.3H14.6v-58.3H0z M29.2,422.9v14.6H14.6v-14.6H29.2z"/>
	<polygon points="58.3,364.5 58.3,379.1 58.3,393.7 58.3,408.3 58.3,422.9 58.3,437.4 58.3,452 58.3,466.6 43.7,466.6 29.2,466.6 
		14.6,466.6 0,466.6 0,481.2 14.6,481.2 29.2,481.2 43.7,481.2 58.3,481.2 72.9,481.2 72.9,466.6 72.9,452 72.9,437.4 72.9,422.9 
		72.9,408.3 72.9,393.7 72.9,379.1 72.9,364.5 72.9,349.9 58.3,349.9 	"/>
	<path d="M29.2,262.5v43.7h102.1v-72.9H58.3v29.2H29.2z M58.3,291.6H43.7V277h14.6V291.6z M72.9,247.9h43.7v43.7H72.9V247.9z"/>
	<path d="M131.2,204.1H72.9v-14.6h58.3V175H72.9v-14.6h58.3v-14.6H72.9v-17.5v-26.2V87.5H58.3H43.7H29.2h0H14.6H0v14.6v14.6h0v43.7
		h58.3V175H0v43.7h131.2V204.1z M58.3,204.1H14.6v-14.6h43.7V204.1z M58.3,128.3v17.5H14.6v-14.6h0v-10.6v-18.6h14.6h0h14.6h14.6
		V128.3z"/>
	<path d="M131.2,29.2H72.9V14.6h58.3V0H29.2v43.7h102.1V29.2z M58.3,29.2H43.7V14.6h14.6V29.2z"/>
	<polygon points="29.2,72.9 43.7,72.9 58.3,72.9 72.9,72.9 87.5,72.9 102.1,72.9 116.6,72.9 131.2,72.9 131.2,58.3 116.6,58.3 
		102.1,58.3 87.5,58.3 72.9,58.3 58.3,58.3 43.7,58.3 29.2,58.3 14.6,58.3 14.6,43.7 14.6,29.2 14.6,14.6 14.6,0 0,0 0,14.6 0,29.2 
		0,43.7 0,58.3 0,72.9 14.6,72.9 	"/>
	<rect x="379.1" y="204.1" width="14.6" height="14.6"/>
	<rect x="204.1" y="87.5" width="14.6" height="14.6"/>
	<rect x="88.5" y="262.5" width="14.6" height="14.6"/>
	<rect x="262.5" y="379.1" width="14.6" height="14.6"/>
	<rect x="349.9" y="29.2" width="14.6" height="14.6"/>
	<rect x="437.4" y="349.9" width="14.6" height="14.6"/>
	<rect x="29.2" y="116.6" width="14.6" height="14.6"/>
	<rect x="116.6" y="437.4" width="14.6" height="14.6"/>
</g>
</svg>
